<?xml version="1.0" standalone="no"?>
<!DOCTYPE svg PUBLIC "-//W3C//DTD SVG 20010904//EN"
 "http://www.w3.org/TR/2001/REC-SVG-20010904/DTD/svg10.dtd">
<svg version="1.0" xmlns="http://www.w3.org/2000/svg"
 width="557.000000pt" height="86.000000pt" viewBox="0 0 557.000000 86.000000"
 preserveAspectRatio="xMidYMid meet">

<g transform="translate(0.000000,86.000000) scale(0.100000,-0.100000)"
fill="#000000" stroke="none">
<path d="M420 650 l0 -210 -210 0 c-133 0 -210 -4 -210 -10 0 -6 77 -10 210
-10 l210 0 0 -210 c0 -133 4 -210 10 -210 6 0 10 77 10 210 l0 210 210 0 c133
0 210 4 210 10 0 6 -77 10 -210 10 l-210 0 0 210 c0 133 -4 210 -10 210 -6 0
-10 -77 -10 -210z"/>
<path d="M180 730 l0 -50 -45 0 c-38 0 -45 -3 -45 -20 0 -17 7 -20 45 -20 l45
0 0 -45 c0 -38 3 -45 20 -45 17 0 20 7 20 45 l0 45 50 0 c43 0 50 3 50 20 0
17 -7 20 -50 20 l-50 0 0 50 c0 43 -3 50 -20 50 -17 0 -20 -7 -20 -50z"/>
<path d="M5030 714 c-57 -11 -88 -26 -121 -60 -31 -32 -34 -41 -34 -94 0 -92
43 -134 184 -181 101 -34 136 -84 91 -129 -15 -15 -33 -20 -71 -20 -43 0 -55
5 -80 29 -16 16 -29 37 -29 45 0 13 -12 16 -61 16 l-61 0 7 -33 c18 -81 70
-128 164 -148 95 -20 210 10 246 64 37 57 31 139 -15 190 -29 34 -59 50 -164
88 -65 24 -96 49 -96 79 0 58 108 83 155 35 14 -13 25 -31 25 -40 0 -12 13
-15 60 -15 70 0 74 8 38 80 -17 33 -35 50 -68 67 -46 23 -125 35 -170 27z"/>
<path d="M1150 425 l0 -285 62 0 61 0 -6 198 -6 197 50 -135 c27 -74 60 -162
72 -195 l23 -60 44 0 43 0 68 185 c38 102 70 190 73 195 2 6 1 -79 -2 -187
l-5 -198 61 0 62 0 0 285 0 285 -78 0 -78 0 -69 -195 c-38 -107 -71 -195 -75
-195 -3 0 -36 88 -75 195 l-69 195 -78 0 -78 0 0 -285z"/>
<path d="M2012 683 c-6 -15 -52 -136 -101 -268 -49 -132 -92 -248 -96 -257 -6
-16 0 -18 57 -18 l63 0 20 57 20 58 102 3 101 3 19 -58 20 -58 61 -3 c34 -2
62 1 62 5 0 4 -47 132 -103 283 l-103 275 -55 3 c-53 3 -57 1 -67 -25z m102
-228 c14 -44 26 -86 26 -93 0 -8 -20 -12 -65 -12 -36 0 -65 3 -65 7 0 24 64
193 70 186 4 -4 19 -44 34 -88z"/>
<path d="M2314 696 c-3 -8 -4 -29 -2 -48 l3 -33 85 -5 85 -5 3 -232 2 -233 60
0 60 0 0 235 0 235 85 0 85 0 0 50 0 50 -230 0 c-189 0 -232 -3 -236 -14z"/>
<path d="M2840 425 l0 -285 60 0 60 0 0 120 0 120 115 0 115 0 0 -120 0 -120
60 0 60 0 0 285 0 285 -60 0 -60 0 0 -115 0 -115 -115 0 -115 0 0 115 0 115
-60 0 -60 0 0 -285z"/>
<path d="M3410 425 l0 -285 60 0 60 0 0 99 0 99 93 4 c154 6 220 61 220 182 0
57 -12 87 -51 129 -40 42 -107 57 -254 57 l-128 0 0 -285z m283 165 c33 -26
43 -70 23 -108 -19 -37 -32 -42 -117 -42 l-69 0 0 85 0 85 69 0 c53 0 74 -4
94 -20z"/>
<path d="M3930 425 l0 -285 180 0 180 0 0 50 0 50 -125 0 -125 0 0 235 0 235
-55 0 -55 0 0 -285z"/>
<path d="M4340 526 c0 -267 15 -323 102 -367 87 -44 224 -31 280 28 53 55 58
84 58 313 l0 210 -60 0 -60 0 0 -205 c0 -222 -7 -256 -52 -269 -47 -12 -87 -6
-115 18 l-28 24 -3 216 -3 216 -60 0 -59 0 0 -184z"/>
<path d="M540 665 l0 -25 115 0 115 0 0 25 0 25 -115 0 -115 0 0 -25z"/>
<path d="M120 295 c-12 -14 -9 -21 18 -48 l32 -31 -32 -33 c-27 -27 -29 -35
-18 -48 12 -14 17 -12 47 17 l33 32 33 -32 c30 -29 35 -31 47 -17 11 13 9 21
-18 48 l-32 33 32 31 c27 27 30 34 18 48 -12 14 -17 13 -47 -17 l-33 -32 -33
32 c-30 30 -35 31 -47 17z"/>
<path d="M540 260 c0 -19 7 -20 115 -20 108 0 115 1 115 20 0 19 -7 20 -115
20 -108 0 -115 -1 -115 -20z"/>
<path d="M540 170 c0 -19 7 -20 115 -20 108 0 115 1 115 20 0 19 -7 20 -115
20 -108 0 -115 -1 -115 -20z"/>
</g>
</svg>
