<?xml version="1.0" standalone="no"?>
<!DOCTYPE svg PUBLIC "-//W3C//DTD SVG 20010904//EN"
 "http://www.w3.org/TR/2001/REC-SVG-20010904/DTD/svg10.dtd">
<svg version="1.0" xmlns="http://www.w3.org/2000/svg"
 width="86.000000pt" height="86.000000pt" viewBox="0 0 86.000000 86.000000"
 preserveAspectRatio="xMidYMid meet">

<g transform="translate(0.000000,86.000000) scale(0.100000,-0.100000)"
fill="#000000" stroke="none">
<path d="M420 650 l0 -210 -210 0 c-133 0 -210 -4 -210 -10 0 -6 77 -10 210
-10 l210 0 0 -210 c0 -133 4 -210 10 -210 6 0 10 77 10 210 l0 210 210 0 c133
0 210 4 210 10 0 6 -77 10 -210 10 l-210 0 0 210 c0 133 -4 210 -10 210 -6 0
-10 -77 -10 -210z"/>
<path d="M180 730 l0 -50 -45 0 c-38 0 -45 -3 -45 -20 0 -17 7 -20 45 -20 l45
0 0 -45 c0 -38 3 -45 20 -45 17 0 20 7 20 45 l0 45 50 0 c43 0 50 3 50 20 0
17 -7 20 -50 20 l-50 0 0 50 c0 43 -3 50 -20 50 -17 0 -20 -7 -20 -50z"/>
<path d="M540 665 l0 -25 115 0 115 0 0 25 0 25 -115 0 -115 0 0 -25z"/>
<path d="M120 295 c-12 -14 -9 -21 18 -48 l32 -31 -32 -33 c-27 -27 -29 -35
-18 -48 12 -14 17 -12 47 17 l33 32 33 -32 c30 -29 35 -31 47 -17 11 13 9 21
-18 48 l-32 33 32 31 c27 27 30 34 18 48 -12 14 -17 13 -47 -17 l-33 -32 -33
32 c-30 30 -35 31 -47 17z"/>
<path d="M540 260 c0 -19 7 -20 115 -20 108 0 115 1 115 20 0 19 -7 20 -115
20 -108 0 -115 -1 -115 -20z"/>
<path d="M540 170 c0 -19 7 -20 115 -20 108 0 115 1 115 20 0 19 -7 20 -115
20 -108 0 -115 -1 -115 -20z"/>
</g>
</svg>
